<svg width="12" height="12" viewBox="0 0 12 12" fill="none" xmlns="http://www.w3.org/2000/svg">
<path fill-rule="evenodd" clip-rule="evenodd" d="M6 0.666656C4.52667 0.666656 3.33333 1.85999 3.33333 3.33332C3.33333 4.80666 4.52667 5.99999 6 5.99999C7.47333 5.99999 8.66667 4.80666 8.66667 3.33332C8.66667 1.85999 7.47333 0.666656 6 0.666656ZM7.33333 3.33332C7.33333 2.59999 6.73333 1.99999 6 1.99999C5.26667 1.99999 4.66667 2.59999 4.66667 3.33332C4.66667 4.06666 5.26667 4.66666 6 4.66666C6.73333 4.66666 7.33333 4.06666 7.33333 3.33332ZM10.3333 9.99999C10.2 9.52666 7.8 8.66666 6 8.66666C4.20667 8.66666 1.82 9.51999 1.66667 9.99999H10.3333ZM0 9.99999C0 8.22666 4.22 7.33332 6 7.33332C7.78 7.33332 12 8.22666 12 9.99999V11.3333H0V9.99999Z" fill="white"/>
</svg>
